<svg width="208" height="236" viewBox="0 0 208 236" fill="none" xmlns="http://www.w3.org/2000/svg">
<path fill-rule="evenodd" clip-rule="evenodd" d="M97.4647 57.4461L83.7486 92.1396C83.5873 92.7851 82.9418 93.1078 82.135 93.1078C81.4895 93.1078 80.8441 92.7851 80.5213 92.1396L73.4212 74.3895C73.2599 73.9054 73.2599 73.5826 73.4212 73.0985L101.337 0.968192C101.66 0.322731 102.306 0 103.112 0C103.758 0 104.565 0.322731 104.888 0.968192L190.734 216.068C193.638 222.684 198.641 227.687 206.225 228.171C207.032 228.171 207.839 228.978 207.839 229.784V233.334C207.839 234.303 207.032 235.109 206.064 235.109H153.943C152.974 235.109 152.168 234.303 152.168 233.334V229.784C152.168 228.816 152.974 228.171 153.943 228.171C155.879 228.171 157.654 227.364 159.268 226.234C161.043 224.943 161.688 223.33 161.688 221.232C161.688 219.78 161.204 218.005 160.72 216.714L97.4647 57.4461ZM63.2552 145.39L34.5322 218.489C33.4026 221.232 33.0799 224.782 36.1458 226.396C37.7595 227.364 39.6959 228.171 41.6323 228.171C42.6005 228.171 43.4073 228.816 43.4073 229.784V233.334C43.4073 234.303 42.6005 235.109 41.6323 235.109H1.61365C0.645462 235.109 0 234.303 0 233.334V229.784C0 228.816 0.645462 228.171 1.61365 228.171C9.35919 228.171 14.5229 224.298 17.2661 217.198L52.6051 126.349C52.9278 125.704 53.5733 125.22 54.2188 125.22C55.0256 125.22 55.6711 125.704 55.9938 126.349L63.2552 143.938C63.4166 144.422 63.4166 144.906 63.2552 145.39Z" fill="#D3A700"/>
<path fill-rule="evenodd" clip-rule="evenodd" d="M163.621 221.072C163.621 219.781 163.298 218.006 162.491 215.908L97.7839 52.4448L82.2928 91.3339L75.1927 73.5837L103.27 1.61475L189.278 216.553C192.344 223.492 197.83 229.301 206.221 229.785V233.174H153.939V229.785C156.36 229.785 158.457 228.979 160.555 227.526C162.653 225.913 163.621 223.815 163.621 221.072ZM61.7994 144.584L32.915 217.683C31.4627 221.233 31.4627 225.751 35.3355 227.849C37.5946 229.14 39.6924 229.785 41.7901 229.785V233.174H1.77148V229.785C10.3239 229.785 15.9716 225.106 18.8762 217.683L54.538 126.834L61.7994 144.584Z" fill="#D3A700"/>
<path fill-rule="evenodd" clip-rule="evenodd" d="M110.213 177.502L124.09 142.163C124.413 141.517 125.058 141.033 125.704 141.033C126.51 141.033 127.156 141.517 127.317 142.163L134.417 160.397C134.579 160.72 134.579 161.204 134.417 161.688L106.34 233.98C106.017 234.625 105.372 235.109 104.726 235.109C103.758 235.109 103.112 234.625 102.951 233.98L16.9434 18.8798C14.2002 12.2638 9.03646 7.26144 1.61365 6.93871C0.645462 6.77735 0 5.97052 0 5.16369V1.61365C0 0.645462 0.645462 0 1.61365 0H53.896C54.8642 0 55.5097 0.645462 55.5097 1.61365V5.16369C55.5097 6.13189 54.8642 6.93871 53.896 6.93871C51.7983 6.93871 50.0233 7.58417 48.4096 8.71373C46.6346 10.0047 45.9891 11.6183 45.9891 13.7161C45.9891 15.1683 46.4732 16.9434 46.9573 18.2343L110.213 177.502ZM144.745 89.0737L173.145 16.4593C174.275 13.8774 174.597 10.166 171.531 8.55237C169.918 7.58417 167.981 6.93871 166.045 6.93871C165.077 6.93871 164.27 6.13189 164.27 5.16369V1.61365C164.27 0.645462 165.077 0 166.045 0H206.064C207.032 0 207.839 0.645462 207.839 1.61365V5.16369C207.839 6.13189 207.032 6.93871 206.064 6.93871C198.318 6.93871 193.154 10.6501 190.411 17.7502L154.911 108.76C154.749 109.406 154.104 109.89 153.297 109.89C152.652 109.89 152.006 109.406 151.683 108.76L144.745 90.2033C144.583 89.8805 144.583 89.3964 144.745 89.0737Z" fill="#1B1918"/>
<path fill-rule="evenodd" clip-rule="evenodd" d="M44.372 13.5558C44.372 15.0081 44.6947 16.6217 45.3401 18.7195L110.209 182.183L125.861 142.648L132.8 160.882L104.723 233.174L18.5535 18.074C15.6489 11.1353 10.0011 5.48752 1.77148 5.00342V1.61475H54.0539V5.00342C51.6334 5.00342 49.5356 5.64888 47.4379 7.26253C45.3401 8.71482 44.372 10.8126 44.372 13.5558ZM146.355 89.5589L175.078 17.1058C176.369 13.3944 176.53 8.87619 172.657 6.9398C170.237 5.64888 168.139 5.00342 166.203 5.00342V1.61475H206.221V5.00342C197.508 5.00342 191.86 9.52165 188.955 17.1058L153.294 107.955L146.355 89.5589Z" fill="#1B1918"/>
</svg>
